<?xml version="1.0" encoding="UTF-8" standalone="no"?>
<!DOCTYPE svg PUBLIC "-//W3C//DTD SVG 1.1//EN" "http://www.w3.org/Graphics/SVG/1.1/DTD/svg11.dtd">
<svg width="100%" height="100%" viewBox="0 0 413 434" version="1.1" xmlns="http://www.w3.org/2000/svg" xmlns:xlink="http://www.w3.org/1999/xlink" xml:space="preserve" xmlns:serif="http://www.serif.com/" style="fill-rule:evenodd;clip-rule:evenodd;stroke-miterlimit:10;">
    <g transform="matrix(1,0,0,1,-1168.59,49.0499)">
        <g id="dots">
            <g transform="matrix(1.22465e-16,-1,-1,-1.22465e-16,1494.28,107.185)">
                <path d="M3.76,-3.76C5.836,-3.76 7.52,-2.076 7.52,0C7.52,2.076 5.836,3.76 3.76,3.76C1.684,3.76 -0,2.076 -0,0C-0,-2.076 1.684,-3.76 3.76,-3.76" style="fill:#695CFF;fill-rule:nonzero;"/>
            </g>
            <g transform="matrix(1.22465e-16,-1,-1,-1.22465e-16,1509.98,327.852)">
                <path d="M3.76,-3.76C5.836,-3.76 7.52,-2.076 7.52,0C7.52,2.076 5.836,3.76 3.76,3.76C1.684,3.76 -0,2.076 -0,0C-0,-2.076 1.684,-3.76 3.76,-3.76" style="fill:#695CFF;fill-rule:nonzero;"/>
            </g>
            <g transform="matrix(1.22465e-16,-1,-1,-1.22465e-16,1509.98,327.852)">
                <path d="M3.76,-3.76C5.836,-3.76 7.52,-2.076 7.52,0C7.52,2.076 5.836,3.76 3.76,3.76C1.684,3.76 -0,2.076 -0,0C-0,-2.076 1.684,-3.76 3.76,-3.76" style="fill:#695CFF;fill-rule:nonzero;"/>
            </g>
            <g transform="matrix(1.22465e-16,-1,-1,-1.22465e-16,1509.98,327.852)">
                <path d="M3.76,-3.76C5.836,-3.76 7.52,-2.076 7.52,0C7.52,2.076 5.836,3.76 3.76,3.76C1.684,3.76 -0,2.076 -0,0C-0,-2.076 1.684,-3.76 3.76,-3.76" style="fill:#695CFF;fill-rule:nonzero;"/>
            </g>
            <g transform="matrix(1.22465e-16,-1,-1,-1.22465e-16,1517.37,49.8514)">
                <path d="M3.76,-3.76C5.836,-3.76 7.52,-2.076 7.52,0C7.52,2.076 5.836,3.76 3.76,3.76C1.684,3.76 -0,2.076 -0,0C-0,-2.076 1.684,-3.76 3.76,-3.76" style="fill:#695CFF;fill-rule:nonzero;"/>
            </g>
            <g transform="matrix(1.22465e-16,-1,-1,-1.22465e-16,1507.81,9.18541)">
                <path d="M3.76,-3.76C5.836,-3.76 7.52,-2.076 7.52,0C7.52,2.076 5.836,3.76 3.76,3.76C1.684,3.76 -0,2.076 -0,0C-0,-2.076 1.684,-3.76 3.76,-3.76" style="fill:#695CFF;fill-rule:nonzero;"/>
            </g>
            <g transform="matrix(1.22465e-16,-1,-1,-1.22465e-16,1528.93,362.852)">
                <path d="M3.76,-3.76C5.836,-3.76 7.52,-2.076 7.52,0C7.52,2.076 5.836,3.76 3.76,3.76C1.684,3.76 -0,2.076 -0,0C-0,-2.076 1.684,-3.76 3.76,-3.76" style="fill:#695CFF;fill-rule:nonzero;"/>
            </g>
            <g transform="matrix(1.22465e-16,-1,-1,-1.22465e-16,1528.93,362.852)">
                <path d="M3.76,-3.76C5.836,-3.76 7.52,-2.076 7.52,0C7.52,2.076 5.836,3.76 3.76,3.76C1.684,3.76 -0,2.076 -0,0C-0,-2.076 1.684,-3.76 3.76,-3.76" style="fill:#695CFF;fill-rule:nonzero;"/>
            </g>
            <g transform="matrix(1.22465e-16,-1,-1,-1.22465e-16,1528.93,362.852)">
                <path d="M3.76,-3.76C5.836,-3.76 7.52,-2.076 7.52,0C7.52,2.076 5.836,3.76 3.76,3.76C1.684,3.76 -0,2.076 -0,0C-0,-2.076 1.684,-3.76 3.76,-3.76" style="fill:#695CFF;fill-rule:nonzero;"/>
            </g>
            <g transform="matrix(0.0291255,-0.999576,-0.999576,-0.0291255,1466.38,57.1754)">
                <path d="M3.757,-3.869C5.833,-3.869 7.518,-2.185 7.517,-0.11C7.517,1.967 5.833,3.651 3.757,3.651C1.682,3.65 -0.003,1.966 -0.002,-0.109C-0.002,-2.185 1.682,-3.869 3.757,-3.869" style="fill:#695CFF;fill-rule:nonzero;"/>
            </g>
            <g transform="matrix(1.22465e-16,-1,-1,-1.22465e-16,1481.29,245.018)">
                <path d="M3.76,-3.76C5.836,-3.76 7.52,-2.076 7.52,0C7.52,2.076 5.836,3.76 3.76,3.76C1.684,3.76 -0,2.076 -0,0C-0,-2.076 1.684,-3.76 3.76,-3.76" style="fill:#695CFF;fill-rule:nonzero;"/>
            </g>
            <g transform="matrix(1.22465e-16,-1,-1,-1.22465e-16,1481.29,245.018)">
                <path d="M3.76,-3.76C5.836,-3.76 7.52,-2.076 7.52,0C7.52,2.076 5.836,3.76 3.76,3.76C1.684,3.76 -0,2.076 -0,0C-0,-2.076 1.684,-3.76 3.76,-3.76" style="fill:#695CFF;fill-rule:nonzero;"/>
            </g>
            <g transform="matrix(1.22465e-16,-1,-1,-1.22465e-16,1442.7,135.185)">
                <path d="M3.761,-3.759C5.836,-3.759 7.52,-2.075 7.52,0.001C7.52,2.077 5.836,3.761 3.761,3.761C1.685,3.761 0,2.077 0,0.001C0,-2.075 1.685,-3.759 3.761,-3.759" style="fill:#695CFF;fill-rule:nonzero;"/>
            </g>
            <g transform="matrix(1.22465e-16,-1,-1,-1.22465e-16,1442.7,135.185)">
                <path d="M3.761,-3.759C5.836,-3.759 7.52,-2.075 7.52,0.001C7.52,2.077 5.836,3.761 3.761,3.761C1.685,3.761 0,2.077 0,0.001C0,-2.075 1.685,-3.759 3.761,-3.759" style="fill:#695CFF;fill-rule:nonzero;"/>
            </g>
            <g transform="matrix(1.22465e-16,-1,-1,-1.22465e-16,1442.7,135.185)">
                <path d="M3.761,-3.759C5.836,-3.759 7.52,-2.075 7.52,0.001C7.52,2.077 5.836,3.761 3.761,3.761C1.685,3.761 0,2.077 0,0.001C0,-2.075 1.685,-3.759 3.761,-3.759" style="fill:#695CFF;fill-rule:nonzero;"/>
            </g>
            <g transform="matrix(1.22465e-16,-1,-1,-1.22465e-16,1442.87,29.1854)">
                <path d="M3.76,-3.76C5.836,-3.76 7.52,-2.076 7.52,0C7.52,2.076 5.836,3.76 3.76,3.76C1.684,3.76 -0,2.076 -0,0C-0,-2.076 1.684,-3.76 3.76,-3.76" style="fill:#695CFF;fill-rule:nonzero;"/>
            </g>
            <g transform="matrix(1.22465e-16,-1,-1,-1.22465e-16,1442.87,29.1854)">
                <path d="M3.76,-3.76C5.836,-3.76 7.52,-2.076 7.52,0C7.52,2.076 5.836,3.76 3.76,3.76C1.684,3.76 -0,2.076 -0,0C-0,-2.076 1.684,-3.76 3.76,-3.76" style="fill:#695CFF;fill-rule:nonzero;"/>
            </g>
            <g transform="matrix(1.22465e-16,-1,-1,-1.22465e-16,1324.95,198.184)">
                <path d="M3.76,-3.76C5.836,-3.76 7.52,-2.076 7.52,0C7.52,2.076 5.836,3.76 3.76,3.76C1.684,3.76 -0,2.076 -0,0C-0,-2.076 1.684,-3.76 3.76,-3.76" style="fill:#695CFF;fill-rule:nonzero;"/>
            </g>
            <g transform="matrix(1.22465e-16,-1,-1,-1.22465e-16,1343.37,107.185)">
                <path d="M3.76,-3.76C5.836,-3.76 7.52,-2.076 7.52,0C7.52,2.076 5.836,3.76 3.76,3.76C1.684,3.76 -0,2.076 -0,0C-0,-2.076 1.684,-3.76 3.76,-3.76" style="fill:#695CFF;fill-rule:nonzero;"/>
            </g>
            <g transform="matrix(1.22465e-16,-1,-1,-1.22465e-16,1343.37,107.185)">
                <path d="M3.76,-3.76C5.836,-3.76 7.52,-2.076 7.52,0C7.52,2.076 5.836,3.76 3.76,3.76C1.684,3.76 -0,2.076 -0,0C-0,-2.076 1.684,-3.76 3.76,-3.76" style="fill:#695CFF;fill-rule:nonzero;"/>
            </g>
            <g transform="matrix(1.22465e-16,-1,-1,-1.22465e-16,1388.84,61.5184)">
                <path d="M3.76,-3.76C5.836,-3.76 7.52,-2.076 7.52,0C7.52,2.076 5.836,3.76 3.76,3.76C1.684,3.76 -0,2.076 -0,0C-0,-2.076 1.684,-3.76 3.76,-3.76" style="fill:#695CFF;fill-rule:nonzero;"/>
            </g>
            <g transform="matrix(1.22465e-16,-1,-1,-1.22465e-16,1316.87,362.539)">
                <path d="M3.76,-3.76C5.836,-3.76 7.52,-2.076 7.52,0C7.52,2.076 5.836,3.76 3.76,3.76C1.684,3.76 -0,2.076 -0,0C-0,-2.076 1.684,-3.76 3.76,-3.76" style="fill:#695CFF;fill-rule:nonzero;"/>
            </g>
            <g transform="matrix(1.22465e-16,-1,-1,-1.22465e-16,1316.87,362.539)">
                <path d="M3.76,-3.76C5.836,-3.76 7.52,-2.076 7.52,0C7.52,2.076 5.836,3.76 3.76,3.76C1.684,3.76 -0,2.076 -0,0C-0,-2.076 1.684,-3.76 3.76,-3.76" style="fill:#695CFF;fill-rule:nonzero;"/>
            </g>
            <g transform="matrix(1.22465e-16,-1,-1,-1.22465e-16,1316.87,362.539)">
                <path d="M3.76,-3.76C5.836,-3.76 7.52,-2.076 7.52,0C7.52,2.076 5.836,3.76 3.76,3.76C1.684,3.76 -0,2.076 -0,0C-0,-2.076 1.684,-3.76 3.76,-3.76" style="fill:#695CFF;fill-rule:nonzero;"/>
            </g>
            <g transform="matrix(1.22465e-16,-1,-1,-1.22465e-16,1316.87,362.539)">
                <path d="M3.76,-3.76C5.836,-3.76 7.52,-2.076 7.52,0C7.52,2.076 5.836,3.76 3.76,3.76C1.684,3.76 -0,2.076 -0,0C-0,-2.076 1.684,-3.76 3.76,-3.76" style="fill:#695CFF;fill-rule:nonzero;"/>
            </g>
            <g transform="matrix(1.22465e-16,-1,-1,-1.22465e-16,1397.37,135.518)">
                <path d="M3.76,-3.76C5.836,-3.76 7.52,-2.076 7.52,0C7.52,2.076 5.836,3.76 3.76,3.76C1.684,3.76 -0,2.076 -0,0C-0,-2.076 1.684,-3.76 3.76,-3.76" style="fill:#695CFF;fill-rule:nonzero;"/>
            </g>
            <g transform="matrix(1.22465e-16,-1,-1,-1.22465e-16,1397.37,135.518)">
                <path d="M3.76,-3.76C5.836,-3.76 7.52,-2.076 7.52,0C7.52,2.076 5.836,3.76 3.76,3.76C1.684,3.76 -0,2.076 -0,0C-0,-2.076 1.684,-3.76 3.76,-3.76" style="fill:#695CFF;fill-rule:nonzero;"/>
            </g>
            <g transform="matrix(0.707173,-0.70704,-0.70704,-0.707173,1484.37,308.906)">
                <path d="M2.658,-6.419C4.734,-6.419 6.418,-4.735 6.417,-2.659C6.417,-0.582 4.734,1.102 2.658,1.1C0.581,1.1 -1.103,-0.583 -1.102,-2.66C-1.102,-4.735 0.582,-6.419 2.658,-6.419" style="fill:#695CFF;fill-rule:nonzero;"/>
            </g>
            <g transform="matrix(1.22465e-16,-1,-1,-1.22465e-16,1299.84,166.851)">
                <path d="M3.76,-3.76C5.836,-3.76 7.52,-2.076 7.52,0C7.52,2.076 5.836,3.76 3.76,3.76C1.684,3.76 -0,2.076 -0,0C-0,-2.076 1.684,-3.76 3.76,-3.76" style="fill:#695CFF;fill-rule:nonzero;"/>
            </g>
            <g transform="matrix(1.22465e-16,-1,-1,-1.22465e-16,1252.92,135.518)">
                <path d="M3.76,-3.76C5.836,-3.76 7.52,-2.076 7.52,0C7.52,2.076 5.836,3.76 3.76,3.76C1.684,3.76 -0,2.076 -0,0C-0,-2.076 1.684,-3.76 3.76,-3.76" style="fill:#695CFF;fill-rule:nonzero;"/>
            </g>
            <g transform="matrix(1.22465e-16,-1,-1,-1.22465e-16,1270.84,107.185)">
                <path d="M3.76,-3.76C5.836,-3.76 7.52,-2.076 7.52,0C7.52,2.076 5.836,3.76 3.76,3.76C1.684,3.76 -0,2.076 -0,0C-0,-2.076 1.684,-3.76 3.76,-3.76" style="fill:#695CFF;fill-rule:nonzero;"/>
            </g>
            <g transform="matrix(1.22465e-16,-1,-1,-1.22465e-16,1223.87,206.518)">
                <path d="M3.76,-3.76C5.836,-3.76 7.52,-2.076 7.52,0C7.52,2.076 5.836,3.76 3.76,3.76C1.684,3.76 -0,2.076 -0,0C-0,-2.076 1.684,-3.76 3.76,-3.76" style="fill:#695CFF;fill-rule:nonzero;"/>
            </g>
            <g transform="matrix(1.22465e-16,-1,-1,-1.22465e-16,1223.87,358.565)">
                <path d="M3.76,-3.76C5.836,-3.76 7.52,-2.076 7.52,0C7.52,2.076 5.836,3.76 3.76,3.76C1.684,3.76 -0,2.076 -0,0C-0,-2.076 1.684,-3.76 3.76,-3.76" style="fill:#695CFF;fill-rule:nonzero;"/>
            </g>
            <g transform="matrix(1.22465e-16,-1,-1,-1.22465e-16,1202.84,171.518)">
                <path d="M3.76,-3.76C5.836,-3.76 7.52,-2.076 7.52,0C7.52,2.076 5.836,3.76 3.76,3.76C1.684,3.76 -0,2.076 -0,0C-0,-2.076 1.684,-3.76 3.76,-3.76" style="fill:#695CFF;fill-rule:nonzero;"/>
            </g>
        </g>
        <g id="lines">
            <g transform="matrix(-1,-1.22465e-16,1.22465e-16,-1,1547.7,103.236)">
                <path d="M0,-309.762L0,-217.762L53.421,-164.341L53.421,0" style="fill:none;fill-rule:nonzero;stroke:#695CFF;stroke-opacity:0.15;stroke-width:2px;"/>
            </g>
            <g transform="matrix(-1,-1.22465e-16,1.22465e-16,-1,1478.37,323.903)">
                <path d="M0,-89.095L0,-49.762L-31.608,-18.153L-31.608,0" style="fill:none;fill-rule:nonzero;stroke:#695CFF;stroke-opacity:0.15;stroke-width:2px;"/>
            </g>
            <g transform="matrix(-1,-1.22465e-16,1.22465e-16,-1,1478.37,323.903)">
                <path d="M0,-89.095L0,-49.762L-31.608,-18.153L-31.608,0" style="fill:none;fill-rule:nonzero;stroke:#695CFF;stroke-opacity:0.15;stroke-width:2px;"/>
            </g>
            <g transform="matrix(-1,-1.22465e-16,1.22465e-16,-1,1478.37,323.903)">
                <path d="M0,-89.095L0,-49.762L-31.608,-18.153L-31.608,0" style="fill:none;fill-rule:nonzero;stroke:#695CFF;stroke-opacity:0.15;stroke-width:2px;"/>
            </g>
            <g transform="matrix(1.22465e-16,-1,-1,-1.22465e-16,1426.82,136.45)">
                <path d="M-90.548,-90.548L90.548,-90.548" style="fill:none;fill-rule:nonzero;stroke:#695CFF;stroke-opacity:0.15;stroke-width:2px;"/>
            </g>
            <g transform="matrix(-1,-1.22465e-16,1.22465e-16,-1,1561.63,5.23641)">
                <path d="M0,-407.762L0,-281.095L53.825,-227.27L53.825,0" style="fill:none;fill-rule:nonzero;stroke:#695CFF;stroke-opacity:0.15;stroke-width:2px;"/>
            </g>
            <g transform="matrix(1.22465e-16,-1,-1,-1.22465e-16,1501.88,385.951)">
                <path d="M-27.048,-27.048L27.048,-27.048" style="fill:none;fill-rule:nonzero;stroke:#695CFF;stroke-opacity:0.15;stroke-width:2px;"/>
            </g>
            <g transform="matrix(1.22465e-16,-1,-1,-1.22465e-16,1501.88,385.951)">
                <path d="M-27.048,-27.048L27.048,-27.048" style="fill:none;fill-rule:nonzero;stroke:#695CFF;stroke-opacity:0.15;stroke-width:2px;"/>
            </g>
            <g transform="matrix(1.22465e-16,-1,-1,-1.22465e-16,1501.88,385.951)">
                <path d="M-27.048,-27.048L27.048,-27.048" style="fill:none;fill-rule:nonzero;stroke:#695CFF;stroke-opacity:0.15;stroke-width:2px;"/>
            </g>
            <g transform="matrix(-1,-1.22465e-16,1.22465e-16,-1,1421.7,53.2354)">
                <path d="M0,-359.763L0,-267.096L-43.333,-225.763L-44.896,0" style="fill:none;fill-rule:nonzero;stroke:#695CFF;stroke-opacity:0.15;stroke-width:2px;"/>
            </g>
            <g transform="matrix(-1,-1.22465e-16,1.22465e-16,-1,1434.37,241.07)">
                <path d="M0,-177.928L0,-97.928L-46.916,-51.011L-46.916,0" style="fill:none;fill-rule:nonzero;stroke:#695CFF;stroke-opacity:0.15;stroke-width:2px;"/>
            </g>
            <g transform="matrix(-1,-1.22465e-16,1.22465e-16,-1,1434.37,241.07)">
                <path d="M0,-177.928L0,-97.928L-46.916,-51.011L-46.916,0" style="fill:none;fill-rule:nonzero;stroke:#695CFF;stroke-opacity:0.15;stroke-width:2px;"/>
            </g>
            <g transform="matrix(-1,-1.22465e-16,1.22465e-16,-1,1401.04,131.236)">
                <path d="M0,-287.762L0,-153.762L-41.667,-112.095L-41.667,0" style="fill:none;fill-rule:nonzero;stroke:#695CFF;stroke-opacity:0.15;stroke-width:2px;"/>
            </g>
            <g transform="matrix(-1,-1.22465e-16,1.22465e-16,-1,1401.04,131.236)">
                <path d="M0,-287.762L0,-153.762L-41.667,-112.095L-41.667,0" style="fill:none;fill-rule:nonzero;stroke:#695CFF;stroke-opacity:0.15;stroke-width:2px;"/>
            </g>
            <g transform="matrix(-1,-1.22465e-16,1.22465e-16,-1,1401.04,131.236)">
                <path d="M0,-287.762L0,-153.762L-41.667,-112.095L-41.667,0" style="fill:none;fill-rule:nonzero;stroke:#695CFF;stroke-opacity:0.15;stroke-width:2px;"/>
            </g>
            <g transform="matrix(-1,-1.22465e-16,1.22465e-16,-1,1425.04,25.2364)">
                <path d="M0,-209.095L0,-63.095L-17.834,-45.262L-17.834,0" style="fill:none;fill-rule:nonzero;stroke:#695CFF;stroke-opacity:0.15;stroke-width:2px;"/>
            </g>
            <g transform="matrix(-1,-1.22465e-16,1.22465e-16,-1,1425.04,25.2364)">
                <path d="M0,-209.095L0,-63.095L-17.834,-45.262L-17.834,0" style="fill:none;fill-rule:nonzero;stroke:#695CFF;stroke-opacity:0.15;stroke-width:2px;"/>
            </g>
            <g transform="matrix(-1,-1.22465e-16,1.22465e-16,-1,1348.37,194.236)">
                <path d="M0,-224.762L0,-171.095L23.417,-147.679L23.417,0" style="fill:none;fill-rule:nonzero;stroke:#695CFF;stroke-opacity:0.15;stroke-width:2px;"/>
            </g>
            <g transform="matrix(1.22465e-16,-1,-1,-1.22465e-16,1230.86,215.742)">
                <path d="M-112.506,-112.506L112.506,-112.506" style="fill:none;fill-rule:nonzero;stroke:#695CFF;stroke-opacity:0.15;stroke-width:2px;"/>
            </g>
            <g transform="matrix(1.22465e-16,-1,-1,-1.22465e-16,1230.86,215.742)">
                <path d="M-112.506,-112.506L112.506,-112.506" style="fill:none;fill-rule:nonzero;stroke:#695CFF;stroke-opacity:0.15;stroke-width:2px;"/>
            </g>
            <g transform="matrix(-1,-1.22465e-16,1.22465e-16,-1,1374.37,57.5704)">
                <path d="M0,-153.428L0,-55.428L-14.473,-40.955L-14.473,0" style="fill:none;fill-rule:nonzero;stroke:#695CFF;stroke-opacity:0.15;stroke-width:2px;"/>
            </g>
            <g transform="matrix(1.22465e-16,-1,-1,-1.22465e-16,1292.67,382.795)">
                <path d="M-24.203,-24.203L24.203,-24.203" style="fill:none;fill-rule:nonzero;stroke:#695CFF;stroke-opacity:0.15;stroke-width:2px;"/>
            </g>
            <g transform="matrix(1.22465e-16,-1,-1,-1.22465e-16,1292.67,382.795)">
                <path d="M-24.203,-24.203L24.203,-24.203" style="fill:none;fill-rule:nonzero;stroke:#695CFF;stroke-opacity:0.15;stroke-width:2px;"/>
            </g>
            <g transform="matrix(1.22465e-16,-1,-1,-1.22465e-16,1292.67,382.795)">
                <path d="M-24.203,-24.203L24.203,-24.203" style="fill:none;fill-rule:nonzero;stroke:#695CFF;stroke-opacity:0.15;stroke-width:2px;"/>
            </g>
            <g transform="matrix(1.22465e-16,-1,-1,-1.22465e-16,1292.67,382.795)">
                <path d="M-24.203,-24.203L24.203,-24.203" style="fill:none;fill-rule:nonzero;stroke:#695CFF;stroke-opacity:0.15;stroke-width:2px;"/>
            </g>
            <g transform="matrix(-1,-1.22465e-16,1.22465e-16,-1,1374.37,131.57)">
                <path d="M0,-284.428L0,-114.761L-23,-91.761L-23,0" style="fill:none;fill-rule:nonzero;stroke:#695CFF;stroke-opacity:0.15;stroke-width:2px;"/>
            </g>
            <g transform="matrix(-1,-1.22465e-16,1.22465e-16,-1,1374.37,131.57)">
                <path d="M0,-284.428L0,-114.761L-23,-91.761L-23,0" style="fill:none;fill-rule:nonzero;stroke:#695CFF;stroke-opacity:0.15;stroke-width:2px;"/>
            </g>
            <g transform="matrix(-1,-1.22465e-16,1.22465e-16,-1,1451.7,308.774)">
                <path d="M0,-105.558L0,-36.558L-36.558,0" style="fill:none;fill-rule:nonzero;stroke:#695CFF;stroke-opacity:0.15;stroke-width:2px;"/>
            </g>
            <g transform="matrix(1.22465e-16,-1,-1,-1.22465e-16,1182.79,279.951)">
                <path d="M-117.048,-117.048L117.048,-117.048" style="fill:none;fill-rule:nonzero;stroke:#695CFF;stroke-opacity:0.15;stroke-width:2px;"/>
            </g>
            <g transform="matrix(-1,-1.22465e-16,1.22465e-16,-1,1279.84,131.57)">
                <path d="M0,-257.428L0,-188.761L26.917,-161.845L26.917,0" style="fill:none;fill-rule:nonzero;stroke:#695CFF;stroke-opacity:0.15;stroke-width:2px;"/>
            </g>
            <g transform="matrix(1.22465e-16,-1,-1,-1.22465e-16,1190.29,183.784)">
                <path d="M-80.548,-80.548L80.548,-80.548" style="fill:none;fill-rule:nonzero;stroke:#695CFF;stroke-opacity:0.15;stroke-width:2px;"/>
            </g>
            <g transform="matrix(-1,-1.22465e-16,1.22465e-16,-1,1252.92,202.57)">
                <path d="M0,-186.428L0,-142.776L29.049,-113.727L29.049,0" style="fill:none;fill-rule:nonzero;stroke:#695CFF;stroke-opacity:0.15;stroke-width:2px;"/>
            </g>
            <g transform="matrix(1.22465e-16,-1,-1,-1.22465e-16,1202.68,375.807)">
                <path d="M-21.191,-21.191L21.191,-21.191" style="fill:none;fill-rule:nonzero;stroke:#695CFF;stroke-opacity:0.15;stroke-width:2px;"/>
            </g>
            <g transform="matrix(1.22465e-16,-1,-1,-1.22465e-16,1088.12,282.284)">
                <path d="M-114.714,-114.714L114.714,-114.714" style="fill:none;fill-rule:nonzero;stroke:#695CFF;stroke-opacity:0.15;stroke-width:2px;"/>
            </g>
        </g>
    </g>
</svg>
