<svg width="1347" height="1351" viewBox="0 0 1347 1351" fill="none" xmlns="http://www.w3.org/2000/svg">
<path d="M367.409 540.955L366.93 541.098L365.486 536.212L365.965 536.07L364.234 530.208L364.234 530.209L363.754 530.35L362.311 525.465L362.79 525.324L362.79 525.323L361.058 519.461L360.579 519.603L359.135 514.718L359.614 514.575L357.883 508.713L357.403 508.856L356.681 506.412C356.452 505.635 356.23 504.857 356.018 504.078L356.502 503.947L356.502 503.946C355.992 502.075 355.531 500.2 355.121 498.324L354.632 498.432C354.286 496.847 353.974 495.261 353.698 493.675L354.191 493.589L354.192 493.588C353.859 491.679 353.578 489.769 353.348 487.861L353.347 487.862L352.851 487.922C352.656 486.312 352.498 484.703 352.376 483.097L352.874 483.059L352.875 483.057C352.728 481.127 352.632 479.199 352.588 477.276L352.088 477.288C352.051 475.669 352.05 474.051 352.086 472.439L352.586 472.45L352.586 472.449C352.629 470.515 352.723 468.587 352.869 466.667L352.371 466.629C352.494 465.016 352.653 463.407 352.849 461.805L353.345 461.865L353.346 461.865C353.58 459.946 353.866 458.037 354.204 456.138L354.204 456.139L353.711 456.051C353.994 454.459 354.314 452.875 354.669 451.299L355.157 451.408C355.582 449.525 356.058 447.654 356.585 445.797L356.584 445.797L356.103 445.661C356.544 444.107 357.021 442.562 357.533 441.028L358.007 441.186H358.008C358.619 439.357 359.279 437.543 359.99 435.746L359.99 435.747L359.525 435.562C360.119 434.061 360.747 432.572 361.41 431.096L361.866 431.3C362.655 429.542 363.494 427.804 364.381 426.085H364.38L363.936 425.856C364.675 424.423 365.449 423.003 366.255 421.598L366.689 421.846L366.69 421.845C367.647 420.177 368.653 418.529 369.705 416.904H369.703L369.284 416.633C370.16 415.28 371.067 413.942 372.008 412.621L372.415 412.911L372.416 412.91C373.53 411.344 374.689 409.801 375.893 408.283L375.502 407.973C376.502 406.712 377.534 405.468 378.596 404.241L378.973 404.568H378.974C380.231 403.117 381.532 401.69 382.874 400.29H382.873L382.512 399.944C383.071 399.361 383.637 398.783 384.21 398.21C384.783 397.637 385.361 397.071 385.943 396.513L386.29 396.873L386.291 396.874C387.691 395.531 389.116 394.23 390.568 392.974L390.24 392.595C391.467 391.533 392.712 390.503 393.973 389.502L394.283 389.893C395.802 388.689 397.344 387.53 398.91 386.416L398.62 386.008C399.941 385.068 401.279 384.16 402.632 383.285L402.903 383.704L402.904 383.705C404.53 382.653 406.177 381.647 407.846 380.69L407.845 380.689L407.596 380.256C409.001 379.45 410.421 378.676 411.854 377.936L412.083 378.381C413.802 377.494 415.541 376.657 417.298 375.868L417.093 375.411C418.57 374.748 420.059 374.119 421.56 373.525L421.744 373.991C423.541 373.28 425.355 372.619 427.184 372.009L427.183 372.008L427.025 371.534C428.559 371.022 430.104 370.546 431.658 370.105L431.795 370.586C433.652 370.059 435.523 369.582 437.406 369.158L437.295 368.67C438.871 368.315 440.456 367.996 442.048 367.712L442.136 368.205C444.035 367.867 445.944 367.58 447.862 367.346L447.801 366.851C449.403 366.655 451.012 366.496 452.626 366.373L452.663 366.871C454.584 366.725 456.512 366.631 458.446 366.588L458.435 366.088C460.047 366.053 461.664 366.054 463.284 366.091L463.272 366.59C465.195 366.634 467.123 366.731 469.054 366.878V366.877L469.092 366.379C470.699 366.502 472.307 366.66 473.917 366.854L473.857 367.351L473.856 367.351C475.764 367.582 477.674 367.862 479.583 368.194L479.669 367.703C481.255 367.979 482.841 368.29 484.426 368.637L484.319 369.126C486.195 369.536 488.069 369.997 489.94 370.507L490.072 370.024C490.851 370.237 491.629 370.458 492.406 370.687L494.849 371.41L494.707 371.887L500.57 373.62L500.712 373.141L505.598 374.585L505.457 375.063L511.319 376.795L511.461 376.316L516.347 377.76L516.206 378.238L522.068 379.97L522.21 379.492L527.096 380.935L526.954 381.413L532.817 383.145L532.959 382.667L537.845 384.11L537.703 384.588L543.566 386.32L543.707 385.842L548.594 387.285L548.452 387.763L554.315 389.495L554.457 389.017L559.343 390.46L559.201 390.94L565.064 392.67L565.206 392.193L570.091 393.635L569.95 394.115L575.812 395.847L575.955 395.368L580.84 396.811L580.699 397.29L586.561 399.022L586.704 398.543L591.589 399.987L591.448 400.465L597.311 402.196L597.452 401.718L602.338 403.162L602.196 403.64L608.06 405.371L608.201 404.893L613.087 406.337L612.945 406.815L618.809 408.548L618.95 408.068L623.836 409.512L623.694 409.99L629.557 411.723L629.699 411.243L632.141 411.965C632.879 412.182 633.619 412.391 634.36 412.59L634.232 413.069C636.027 413.549 637.832 413.974 639.645 414.341L639.743 413.853C641.251 414.158 642.765 414.423 644.282 414.649L644.209 415.141C646.045 415.415 647.887 415.63 649.733 415.788L649.775 415.293C651.306 415.424 652.84 415.516 654.375 415.568L654.359 416.065C656.211 416.127 658.065 416.131 659.918 416.078L659.905 415.582C661.44 415.537 662.974 415.453 664.506 415.33L664.546 415.824C666.392 415.675 668.235 415.469 670.072 415.205L670.001 414.712C671.52 414.494 673.034 414.235 674.544 413.937L674.64 414.426C676.455 414.068 678.262 413.651 680.059 413.179L679.933 412.699C680.675 412.504 681.416 412.299 682.155 412.084L684.616 411.369L684.756 411.849L690.665 410.134L690.525 409.654L695.449 408.224L695.588 408.705L701.497 406.989L701.357 406.509L706.281 405.079L706.42 405.56L712.329 403.844L712.19 403.364L717.114 401.935L717.252 402.415L723.161 400.699L723.022 400.219L727.945 398.79L728.086 399.27L733.994 397.555L733.854 397.074L738.778 395.645L738.917 396.125L744.826 394.409L744.686 393.929L749.61 392.499L749.75 392.98L755.658 391.264L755.518 390.784L760.443 389.355L760.582 389.834L766.49 388.119L766.351 387.639L771.275 386.21L771.414 386.69L777.323 384.974L777.183 384.494L782.107 383.064L782.247 383.545L788.155 381.83L788.016 381.349L792.939 379.92L793.079 380.4L798.987 378.684L798.848 378.204L803.772 376.775L803.911 377.255L809.819 375.54L809.68 375.06L814.604 373.63L814.743 374.11L820.652 372.395L820.513 371.914L822.975 371.2C823.749 370.974 824.525 370.758 825.301 370.55L825.43 371.033L825.431 371.033C827.296 370.533 829.164 370.082 831.034 369.681L830.929 369.192C832.508 368.854 834.088 368.551 835.669 368.282L835.752 368.774C837.654 368.451 839.557 368.179 841.457 367.957L841.399 367.46C843.002 367.273 844.605 367.121 846.206 367.005L846.241 367.504C848.164 367.364 850.084 367.276 851.999 367.239L851.989 366.74C853.602 366.709 855.212 366.714 856.817 366.755L856.805 367.255C858.73 367.303 860.649 367.404 862.561 367.556L862.601 367.057C864.207 367.185 865.808 367.348 867.403 367.547L867.341 368.043C869.25 368.282 871.15 368.572 873.039 368.913L873.128 368.422C874.712 368.708 876.289 369.03 877.858 369.387L877.746 369.875C879.62 370.302 881.482 370.78 883.33 371.309L883.467 370.827C885.014 371.27 886.551 371.748 888.077 372.26L887.918 372.734L887.917 372.735C889.737 373.346 891.542 374.007 893.33 374.717L893.515 374.253C895.009 374.847 896.491 375.475 897.96 376.137L897.755 376.592L897.754 376.593C899.502 377.381 901.233 378.216 902.944 379.101L903.173 378.657C904.6 379.395 906.012 380.167 907.41 380.971L907.161 381.404C908.822 382.359 910.462 383.361 912.08 384.41L912.352 383.99C913.698 384.862 915.03 385.767 916.344 386.703L916.054 387.111C917.613 388.221 919.149 389.376 920.66 390.575L920.97 390.184C922.225 391.18 923.464 392.208 924.685 393.265L924.358 393.643C925.803 394.894 927.223 396.189 928.617 397.526L928.963 397.165C929.543 397.721 930.119 398.285 930.69 398.856C931.26 399.426 931.824 400.002 932.38 400.582L932.019 400.928L932.018 400.927C933.355 402.321 934.65 403.741 935.902 405.186L936.279 404.86C937.337 406.081 938.364 407.319 939.361 408.575L938.969 408.885C940.169 410.396 941.323 411.931 942.433 413.49L942.434 413.491L942.842 413.201C943.778 414.516 944.683 415.847 945.555 417.193L945.136 417.465L945.135 417.465C946.183 419.082 947.185 420.722 948.14 422.383L948.141 422.383L948.574 422.135C949.378 423.533 950.149 424.945 950.887 426.371L950.443 426.601L950.442 426.6C951.327 428.311 952.164 430.042 952.952 431.791H952.953L953.408 431.585C954.07 433.054 954.698 434.536 955.292 436.03L954.828 436.213C955.539 438.002 956.198 439.807 956.81 441.627H956.811L957.285 441.468C957.797 442.994 958.275 444.531 958.717 446.077L958.236 446.214C958.764 448.062 959.242 449.924 959.669 451.798L959.67 451.799L960.158 451.688C960.516 453.256 960.837 454.833 961.123 456.417L960.631 456.505L960.63 456.505C960.972 458.394 961.262 460.294 961.501 462.204L961.998 462.142C962.197 463.737 962.36 465.338 962.488 466.944L961.989 466.984L961.989 466.984C962.141 468.895 962.241 470.815 962.29 472.74L962.29 472.741L962.79 472.728C962.831 474.333 962.836 475.943 962.805 477.556L962.305 477.546L962.304 477.545C962.267 479.46 962.179 481.38 962.04 483.302L962.041 483.303L962.54 483.34C962.424 484.94 962.271 486.542 962.084 488.146L961.588 488.087C961.366 489.987 961.094 491.89 960.771 493.792L961.263 493.876C960.994 495.457 960.691 497.037 960.353 498.616L959.864 498.511L959.863 498.51C959.462 500.38 959.011 502.248 958.511 504.114L958.995 504.244C958.891 504.632 958.785 505.02 958.677 505.408L958.345 506.571L957.631 509.032L957.149 508.892L955.434 514.8L955.915 514.941L954.485 519.865L954.005 519.726L954.005 519.725L952.289 525.633L952.29 525.634L952.77 525.773L951.341 530.696L950.86 530.557L949.144 536.466L949.625 536.605L948.196 541.529L947.715 541.389L945.999 547.298L946.481 547.438L945.051 552.362L944.57 552.221L942.855 558.13L943.335 558.27L941.906 563.194L941.426 563.053L939.71 568.962L940.19 569.103L938.761 574.026L938.28 573.887L936.565 579.795L937.045 579.934L935.616 584.859L935.135 584.718L933.419 590.627L933.901 590.767L932.471 595.691L931.99 595.551L930.275 601.459L930.755 601.6L929.326 606.523L928.846 606.383L927.131 612.291L927.61 612.431L926.18 617.356L925.7 617.215L923.984 623.124L924.465 623.264L923.036 628.187L922.555 628.048L920.84 633.956L921.321 634.096L919.891 639.02L919.41 638.88L917.696 644.788L918.176 644.929L917.461 647.39C917.246 648.129 917.041 648.87 916.846 649.613L916.366 649.486C915.894 651.283 915.476 653.09 915.118 654.906L915.608 655.003C915.31 656.513 915.051 658.028 914.832 659.547L914.34 659.475C914.075 661.312 913.87 663.156 913.72 665.002L914.216 665.043C914.092 666.575 914.008 668.11 913.963 669.646L913.466 669.631C913.412 671.485 913.418 673.34 913.48 675.193L913.977 675.177C914.029 676.712 914.121 678.247 914.252 679.779L913.757 679.821C913.915 681.666 914.13 683.508 914.403 685.345L914.896 685.272C915.122 686.789 915.388 688.303 915.693 689.812L915.204 689.91C915.57 691.724 915.996 693.529 916.476 695.325L916.956 695.197C917.055 695.568 917.156 695.939 917.26 696.309L917.58 697.417L918.301 699.859L917.822 700L919.553 705.862L919.554 705.863L920.034 705.721L921.477 710.606L920.997 710.748L922.73 716.61L923.209 716.469L924.653 721.354L924.174 721.495L924.173 721.494L925.905 727.357L925.906 727.358L926.385 727.216L927.829 732.101L927.349 732.243L927.349 732.243L929.081 738.104L929.081 738.104L929.561 737.964L931.004 742.848L930.525 742.989L932.256 748.852L932.257 748.853L932.736 748.71L934.18 753.596L933.7 753.737L935.432 759.599L935.433 759.599L935.912 759.459L937.355 764.343L936.876 764.484L938.609 770.346L939.088 770.205L940.531 775.09L940.052 775.232L940.051 775.232L941.784 781.094L942.264 780.952L943.707 785.838L943.228 785.979L943.227 785.979L944.959 791.841L945.439 791.7L946.883 796.585L946.403 796.727L946.403 796.727L948.135 802.588L948.615 802.447L950.058 807.332L949.578 807.473L951.31 813.336L951.79 813.195L953.234 818.08L952.755 818.221L954.486 824.083L954.487 824.084L954.967 823.942L956.41 828.827L955.93 828.968L957.663 834.83L958.142 834.689L958.863 837.132C959.093 837.909 959.314 838.687 959.526 839.466L959.044 839.598L959.043 839.597C959.553 841.469 960.013 843.344 960.423 845.22H960.425L960.913 845.113C961.259 846.698 961.57 848.285 961.846 849.871L961.354 849.956L961.353 849.955C961.686 851.864 961.966 853.774 962.197 855.682L962.197 855.682L962.694 855.623C962.889 857.233 963.047 858.842 963.17 860.448L962.67 860.486L962.67 860.486C962.817 862.416 962.912 864.344 962.956 866.268L962.957 866.268L963.457 866.257C963.494 867.876 963.494 869.493 963.459 871.105L962.96 871.095L962.959 871.094C962.916 873.028 962.821 874.956 962.674 876.877L962.675 876.878L963.174 876.916C963.051 878.529 962.891 880.138 962.696 881.74L962.199 881.679C961.965 883.597 961.679 885.507 961.341 887.406L961.342 887.406L961.834 887.494C961.551 889.086 961.231 890.67 960.876 892.246L960.388 892.136L960.387 892.135C959.963 894.018 959.487 895.89 958.96 897.747L958.961 897.748L959.441 897.884C959 899.438 958.524 900.983 958.012 902.516L957.538 902.358L957.537 902.358C956.926 904.187 956.267 906.001 955.556 907.798L956.02 907.983C955.427 909.484 954.798 910.973 954.135 912.45L953.679 912.244L953.678 912.243C952.889 914.001 952.051 915.74 951.164 917.459L951.609 917.69C950.869 919.123 950.096 920.542 949.29 921.947L948.856 921.699L948.855 921.698C947.898 923.367 946.893 925.014 945.841 926.64L945.841 926.64L946.261 926.912C945.385 928.265 944.478 929.603 943.538 930.924L943.13 930.634L943.129 930.633C942.015 932.199 940.856 933.742 939.651 935.261L939.652 935.262L940.044 935.572C939.043 936.833 938.011 938.077 936.949 939.304L936.572 938.977L936.571 938.975C935.314 940.427 934.014 941.853 932.671 943.254L932.672 943.255L933.033 943.602C932.474 944.184 931.908 944.762 931.335 945.335L930.471 946.189C930.182 946.472 929.892 946.754 929.601 947.033L929.255 946.672L929.255 946.67C927.855 948.013 926.429 949.313 924.977 950.57V950.571L925.304 950.949C924.078 952.011 922.833 953.043 921.572 954.043L921.262 953.651C919.744 954.855 918.2 956.013 916.634 957.127L916.635 957.129L916.925 957.537C915.604 958.477 914.266 959.385 912.913 960.26L912.642 959.841L912.641 959.839C911.016 960.891 909.368 961.896 907.7 962.854V962.855L907.949 963.29C906.544 964.096 905.124 964.869 903.691 965.608L903.462 965.164V965.162C901.742 966.049 900.003 966.887 898.246 967.677V967.678L898.451 968.134C896.975 968.797 895.486 969.426 893.985 970.02L893.801 969.554V969.553C892.004 970.264 890.19 970.925 888.361 971.535V971.537L888.519 972.01C886.986 972.522 885.441 973 883.887 973.441L883.751 972.959V972.958C881.893 973.485 880.023 973.961 878.139 974.386L878.249 974.874C876.673 975.229 875.089 975.549 873.497 975.833L873.409 975.339C871.511 975.677 869.601 975.964 867.683 976.198L867.743 976.694C866.141 976.89 864.533 977.049 862.919 977.172L862.881 976.674V976.672C860.961 976.818 859.033 976.914 857.099 976.956L857.11 977.457C855.497 977.493 853.88 977.492 852.261 977.455L852.273 976.955V976.953C850.35 976.909 848.422 976.814 846.491 976.666V976.667L846.453 977.166C844.847 977.043 843.237 976.885 841.627 976.69L841.687 976.194V976.192C839.78 975.962 837.871 975.681 835.961 975.348L835.876 975.842C834.29 975.565 832.704 975.254 831.119 974.907L831.226 974.419L831.226 974.417C829.351 974.006 827.476 973.546 825.604 973.036V973.037L825.472 973.52C824.694 973.308 823.916 973.087 823.138 972.857L820.696 972.135L820.837 971.656L814.974 969.923L814.833 970.404L809.947 968.96L810.089 968.48L804.225 966.748L804.084 967.228L799.198 965.785L799.34 965.305L793.476 963.573L793.335 964.053L788.449 962.61L788.591 962.13L782.727 960.398L782.586 960.878L777.7 959.435L777.842 958.955L771.979 957.223L771.837 957.703L766.952 956.26L767.093 955.78L761.23 954.048L761.088 954.527L756.202 953.084L756.344 952.605V952.604L750.481 950.873L750.339 951.352L745.453 949.909L745.595 949.43V949.429L739.732 947.697L739.591 948.177L734.704 946.734L734.847 946.255V946.254L728.983 944.522L728.842 945.002L723.955 943.559L724.098 943.078L718.234 941.347L718.093 941.827L713.207 940.384L713.348 939.904L707.486 938.172L707.344 938.652L702.458 937.209L702.599 936.729V936.728L696.737 934.996V934.997L696.595 935.477L691.709 934.034L691.85 933.554V933.553L685.988 931.821V931.822L685.846 932.302L683.403 931.58C682.666 931.362 681.926 931.154 681.184 930.956L681.313 930.476C679.518 929.995 677.713 929.569 675.9 929.202L675.801 929.692C674.293 929.387 672.78 929.122 671.262 928.896L671.335 928.403C669.5 928.13 667.658 927.914 665.813 927.756L665.77 928.252C664.239 928.121 662.705 928.029 661.17 927.977L661.187 927.479C659.333 927.416 657.479 927.412 655.626 927.465L655.64 927.963C654.105 928.007 652.571 928.091 651.039 928.215L650.999 927.72C649.153 927.869 647.31 928.075 645.472 928.34L645.544 928.833C644.025 929.051 642.51 929.31 641.001 929.608L640.904 929.118C639.089 929.476 637.283 929.894 635.486 930.366L635.612 930.847C634.87 931.042 634.129 931.246 633.391 931.461L630.929 932.176L630.789 931.695L624.88 933.41V933.411L625.02 933.892L620.096 935.321L619.957 934.84V934.839L614.049 936.554V936.556L614.187 937.036L609.264 938.465L609.124 937.984L603.216 939.7V939.701L603.355 940.181L598.432 941.61L598.293 941.13V941.129L592.383 942.844V942.846L592.523 943.326L587.599 944.756L587.46 944.275V944.274L581.551 945.989V945.99L581.691 946.471L576.767 947.9L576.627 947.421V947.419L570.719 949.134L570.859 949.616L565.934 951.045L565.796 950.565V950.564L559.887 952.28L560.026 952.76L555.102 954.191L554.963 953.709L549.054 955.425L549.194 955.906L544.27 957.335L544.131 956.855L538.222 958.569V958.571L538.361 959.051L533.438 960.481L533.298 960V959.999L527.39 961.714V961.715L527.53 962.196L522.605 963.625L522.466 963.144L516.558 964.859V964.861L516.697 965.341L511.773 966.77L511.634 966.29V966.289L505.725 968.005L505.865 968.485L500.941 969.915L500.801 969.435V969.433L494.893 971.149V971.15L495.032 971.631L492.571 972.345C491.796 972.571 491.02 972.787 490.244 972.995L490.114 972.512V972.51C488.249 973.011 486.381 973.462 484.511 973.862V973.864L484.616 974.353C483.037 974.691 481.456 974.995 479.876 975.264L479.792 974.77C477.89 975.093 475.988 975.365 474.088 975.587V975.588L474.145 976.085C472.542 976.272 470.94 976.424 469.34 976.54L469.303 976.04V976.039C467.38 976.178 465.461 976.267 463.545 976.304L463.555 976.806C461.943 976.837 460.333 976.831 458.728 976.79L458.741 976.29C456.815 976.242 454.896 976.14 452.984 975.988V975.989L452.944 976.488C451.338 976.36 449.737 976.197 448.142 975.998L448.205 975.5C446.295 975.262 444.395 974.971 442.506 974.63V974.631L442.416 975.123C440.832 974.837 439.256 974.515 437.688 974.158L437.799 973.67V973.668C435.925 973.241 434.063 972.763 432.215 972.235V972.236L432.077 972.717C430.531 972.275 428.994 971.797 427.468 971.285L427.627 970.81C425.807 970.198 424.002 969.538 422.214 968.827L422.029 969.292C420.536 968.699 419.054 968.071 417.585 967.409L417.791 966.953L417.791 966.951C416.043 966.163 414.312 965.326 412.601 964.441V964.443L412.371 964.887C410.945 964.149 409.532 963.379 408.134 962.575L408.384 962.141V962.139C406.723 961.184 405.083 960.182 403.466 959.134V959.135L403.193 959.555C401.847 958.683 400.516 957.778 399.201 956.841L399.491 956.434V956.433C397.932 955.323 396.397 954.168 394.886 952.968V952.97L394.574 953.361C393.319 952.365 392.08 951.337 390.859 950.28L391.187 949.901C389.742 948.649 388.322 947.354 386.928 946.017L386.927 946.019L386.582 946.38C386.002 945.824 385.426 945.26 384.856 944.689C384.285 944.119 383.721 943.543 383.165 942.963L383.526 942.618L383.527 942.616C382.19 941.222 380.895 939.803 379.643 938.357L379.264 938.685C378.207 937.464 377.18 936.226 376.183 934.97L376.575 934.659L376.576 934.659C375.377 933.148 374.222 931.612 373.112 930.054L373.111 930.054L372.704 930.344C371.767 929.029 370.862 927.698 369.99 926.352L370.41 926.08L370.41 926.079C369.362 924.461 368.36 922.821 367.404 921.16L367.404 921.161L366.97 921.411C366.166 920.013 365.395 918.599 364.658 917.173L365.102 916.943C364.217 915.232 363.382 913.501 362.594 911.753L362.592 911.754L362.136 911.96C361.474 910.491 360.846 909.009 360.253 907.516L360.717 907.33L360.718 907.33C360.007 905.542 359.346 903.737 358.735 901.917L358.26 902.077C357.748 900.551 357.27 899.014 356.828 897.467L357.309 897.33L357.31 897.329C356.781 895.481 356.302 893.62 355.875 891.746L355.387 891.857C355.03 890.289 354.708 888.713 354.422 887.129L354.914 887.038C354.573 885.149 354.283 883.249 354.044 881.34L353.548 881.403C353.348 879.808 353.185 878.207 353.057 876.601L353.555 876.56C353.403 874.648 353.303 872.729 353.254 870.804L352.755 870.817C352.714 869.212 352.708 867.602 352.74 865.99L353.24 866L353.24 865.999C353.277 864.083 353.365 862.164 353.505 860.241L353.504 860.241L353.005 860.205C353.122 858.605 353.273 857.003 353.46 855.399L353.957 855.457L353.958 855.457C354.18 853.556 354.452 851.654 354.775 849.751L354.775 849.752L354.282 849.669C354.55 848.089 354.854 846.508 355.192 844.929L355.681 845.034L355.682 845.033C356.083 843.163 356.533 841.295 357.033 839.429L357.033 839.43L356.55 839.301C356.654 838.913 356.76 838.525 356.868 838.137L357.2 836.974L357.914 834.513L358.395 834.652L358.396 834.651L360.11 828.743L359.63 828.604L361.06 823.68L361.54 823.819L363.256 817.91L363.255 817.911L362.775 817.772L364.204 812.848L364.684 812.987L364.685 812.987L366.4 807.078L366.4 807.079L365.92 806.939L367.349 802.015L367.83 802.155L367.831 802.154L369.546 796.246L369.545 796.247L369.064 796.107L370.494 791.184L370.975 791.323L370.975 791.323L372.69 785.413L372.69 785.414L372.21 785.275L373.639 780.351L374.119 780.49L374.12 780.489L375.835 774.581L375.355 774.443L376.784 769.518L377.265 769.658L378.981 763.749L378.98 763.75L378.499 763.61L379.929 758.687L380.409 758.826L380.41 758.825L382.125 752.917L382.125 752.918L381.645 752.778L383.074 747.854L383.555 747.994L383.555 747.993L385.271 742.085L385.27 742.085L384.789 741.946L386.219 737.022L386.699 737.161L388.415 731.252L388.415 731.252L387.935 731.114L389.364 726.19L389.844 726.329L389.845 726.328L391.56 720.42L391.079 720.28L392.509 715.357L392.989 715.496L392.99 715.496L394.705 709.588L394.705 709.588L394.224 709.449L395.654 704.525L396.134 704.665L396.135 704.664L397.849 698.755L397.369 698.616L398.084 696.155C398.299 695.416 398.504 694.675 398.699 693.932L399.179 694.057C399.651 692.26 400.069 690.453 400.427 688.638L399.938 688.542C400.236 687.032 400.494 685.517 400.712 683.998L401.205 684.069C401.47 682.231 401.676 680.388 401.825 678.541L401.33 678.502C401.454 676.969 401.537 675.434 401.581 673.899L402.078 673.912C402.131 672.059 402.127 670.204 402.064 668.351L401.568 668.368C401.516 666.833 401.425 665.298 401.293 663.766L401.788 663.724C401.629 661.878 401.415 660.036 401.141 658.199L400.649 658.273C400.423 656.755 400.157 655.241 399.852 653.732L400.342 653.634C399.975 651.82 399.548 650.015 399.068 648.218L398.589 648.348C398.391 647.607 398.183 646.866 397.965 646.128L397.965 646.129L397.243 643.686L397.723 643.543L395.99 637.681L395.511 637.824L394.067 632.938L394.547 632.796L392.815 626.934L392.335 627.076L390.892 622.191L391.372 622.05L391.371 622.049L389.639 616.187L389.16 616.329L387.717 611.444L388.196 611.302L388.195 611.301L386.464 605.439L385.984 605.582L384.54 600.697L385.02 600.555L385.019 600.554L383.287 594.692L382.808 594.834L381.365 589.949L381.844 589.807L380.112 583.945L379.632 584.087L378.189 579.202L378.669 579.059L376.936 573.197L376.457 573.34L375.013 568.454L375.493 568.312L373.76 562.45L373.281 562.592L371.838 557.707L372.317 557.565L370.586 551.703L370.585 551.704L370.106 551.845L368.663 546.96L369.142 546.818L367.409 540.955Z" stroke="#27323C" stroke-miterlimit="3.99393" stroke-dasharray="5 6"/>
<path d="M772.426 963.376C772.426 1003.82 751.266 1039.61 715.816 1059.1L587.331 1129.76C572.405 1137.97 560.202 1150.23 552.041 1165.22L482.44 1293.21C463.004 1328.92 427.122 1350.25 386.463 1350.25C345.804 1350.25 309.922 1328.92 290.495 1293.21L220.875 1165.21C212.724 1150.23 200.521 1137.97 185.595 1129.76L57.1106 1059.1C21.6605 1039.61 0.500268 1003.82 0.500227 963.376C0.500229 922.935 21.6605 887.138 57.1106 867.654L185.595 796.989C200.521 788.782 212.723 776.523 220.884 761.531L290.487 633.545C309.923 597.831 345.805 576.5 386.463 576.5C427.122 576.5 463.004 597.83 482.431 633.545L552.051 761.54C560.202 776.523 572.405 788.782 587.331 796.989L715.816 867.654C751.266 887.138 772.426 922.935 772.426 963.376Z" stroke="#27323C"/>
<path d="M1346.43 387.376C1346.43 427.817 1325.27 463.614 1289.82 483.098L1161.33 553.763C1146.4 561.97 1134.2 574.229 1126.04 589.221L1056.44 717.206C1037 752.921 1001.12 774.252 960.463 774.252C919.804 774.252 883.922 752.921 864.495 717.206L794.875 589.211C786.724 574.228 774.521 561.97 759.595 553.763L631.11 483.098C595.66 463.614 574.5 427.817 574.5 387.376C574.5 346.935 595.66 311.138 631.11 291.654L759.595 220.989C774.521 212.782 786.723 200.523 794.884 185.531L864.486 57.5449C883.922 21.8306 919.804 0.499981 960.463 0.499983C1001.12 0.500028 1037 21.8304 1056.43 57.5449L1126.05 185.54C1134.2 200.523 1146.4 212.782 1161.33 220.989L1289.82 291.654C1325.27 311.138 1346.43 346.935 1346.43 387.376Z" stroke="#27323C"/>
</svg>
